<?xml version="1.0" encoding="utf-8"?>
<svg viewBox="0 0 512 512" width="512" height="512" xmlns="http://www.w3.org/2000/svg">
  <g transform="matrix(1, 0, 0, 1, 0.000001, 0.000003)" style="visibility: hidden;">
    <title>V1</title>
    <g>
      <linearGradient id="SVGID_1_" gradientUnits="userSpaceOnUse" x1="323.7354" y1="396.4141" x2="135.0611" y2="287.4829">
        <stop offset="0" style="stop-color:#6A00F4"/>
        <stop offset="1" style="stop-color:#3700A0"/>
      </linearGradient>
      <polygon fill="url(#SVGID_1_)" points="150.424,269.934 145.177,269.961 209.85,369.375 339.197,369.375 340.498,367.379 &#10;&#9;&#9;&#9;150.374,269.959 &#9;&#9;"/>
      <polygon fill="#16044F" points="366.823,189.385 366.104,185.989 237.722,142.625 145.177,268.211 145.178,268.215 &#10;&#9;&#9;&#9;150.392,269.934 &#9;&#9;"/>
    </g>
    <polygon fill="#4903E2" points="150.643,269.859 150.67,269.855 150.643,269.859 150.386,269.934 346.695,269.006 339.621,215.4 &#9;&#10;&#9;&#9;"/>
    <polygon fill="#4903E2" points="150.577,270.016 150.597,270.021 150.577,270.016 150.386,269.934 294.776,277.711 &#10;&#9;&#9;291.446,330.824 &#9;"/>
  </g>
  <g transform="matrix(0.66313, 0, 0, 0.823813, 25.928019, 83.346916)">
    <title>V2</title>
    <path d="M 320.664 68.222 L 456.709 147.799 L 456.709 182.803 L 320.664 156.897 L 320.664 68.222 Z" style="fill: rgb(73, 3, 226);"/>
    <path d="M 320.664 192.46 L 456.709 202.014 L 456.709 215.378 L 320.664 226.657 L 320.664 192.46 Z" style="fill: rgb(73, 3, 226);"/>
    <path d="M 320.664 350.935 L 456.709 271.358 L 456.709 236.354 L 320.664 262.26 L 320.664 350.935 Z" style="fill: rgb(73, 3, 226);"/>
    <path d="M 237.188 143.553 L 320.727 68.221 L 320.727 210.162 L 237.188 210.162 L 237.188 143.553 Z" style="fill: rgb(22, 4, 79);"/>
    <path d="M 237.188 275.602 L 320.727 350.935 L 320.727 208.994 L 237.188 208.994 L 237.188 275.602 Z" style="fill: rgb(22, 4, 79);"/>
  </g>
</svg>