<?xml version="1.0" encoding="utf-8"?>
<svg viewBox="0 0 512 512" width="512" height="512" xmlns="http://www.w3.org/2000/svg">
  <g style="" transform="matrix(2.164831, 0, 0, 2.164831, -298.196716, -298.196716)">
    <g>
      <linearGradient id="SVGID_1_" gradientUnits="userSpaceOnUse" x1="323.7354" y1="396.4141" x2="135.0611" y2="287.4829">
        <stop offset="0" style="stop-color:#6A00F4"/>
        <stop offset="1" style="stop-color:#3700A0"/>
      </linearGradient>
      <polygon fill="url(#SVGID_1_)" points="150.424,269.934 145.177,269.961 209.85,369.375 339.197,369.375 340.498,367.379 &#10;&#9;&#9;&#9;150.374,269.959 &#9;&#9;"/>
      <polygon fill="#16044F" points="366.823,189.385 366.104,185.989 237.722,142.625 145.177,268.211 145.178,268.215 &#10;&#9;&#9;&#9;150.392,269.934 &#9;&#9;"/>
    </g>
    <polygon fill="#4903E2" points="150.643,269.859 150.67,269.855 150.643,269.859 150.386,269.934 346.695,269.006 339.621,215.4 &#9;&#10;&#9;&#9;"/>
    <polygon fill="#4903E2" points="150.577,270.016 150.597,270.021 150.577,270.016 150.386,269.934 294.776,277.711 &#10;&#9;&#9;291.446,330.824 &#9;"/>
  </g>
</svg>