<?xml version="1.0" encoding="utf-8"?>
<svg viewBox="0 0 512 512" width="512" height="512" xmlns="http://www.w3.org/2000/svg">
  <g style="" transform="matrix(2.045034, 0, 0, 2.045034, -271.635773, -271.730347)">
    <g>
      <polygon points="150.424,269.934 145.177,269.961 209.85,369.375 339.197,369.375 340.498,367.379 &#10;&#9;&#9;&#9;150.374,269.959 &#9;&#9;" style="fill: rgb(116, 2, 209);"/>
      <polygon points="366.823,189.385 366.104,185.989 237.722,142.625 145.177,268.211 145.178,268.215 &#10;&#9;&#9;&#9;150.392,269.934 &#9;&#9;" style="fill: rgb(116, 2, 209);"/>
    </g>
    <polygon points="150.643,269.859 150.67,269.855 150.643,269.859 150.386,269.934 346.695,269.006 339.621,215.4 &#9;&#10;&#9;&#9;" style="fill: rgb(116, 2, 209);"/>
    <polygon points="150.577,270.016 150.597,270.021 150.577,270.016 150.386,269.934 294.776,277.711 &#10;&#9;&#9;291.446,330.824 &#9;" style="fill: rgb(116, 2, 209);"/>
  </g>
</svg>